<svg width="1179" height="142" viewBox="0 0 1179 142" fill="none" xmlns="http://www.w3.org/2000/svg">
<path d="M1.45584e-05 139.896V1.60801H41.406V53.868H75.777V1.60801H117.183V139.896H75.777V87.435H41.406V139.896H1.45584e-05ZM135.691 139.896L176.695 1.60801H233.779L274.582 139.896H233.377L226.744 116.178H182.524L176.092 139.896H135.691ZM189.961 86.832H219.106L205.237 35.778H203.629L189.961 86.832ZM310.845 139.896V33.567H275.067V1.60801H388.029V33.567H352.251V139.896H310.845ZM409.49 139.896V1.60801H508.583V31.959H450.695V55.074H499.136V85.023H450.695V109.545H508.583V139.896H409.49ZM594.715 141.504C584.531 141.504 576.022 140.834 569.188 139.494C562.354 138.154 556.793 135.876 552.505 132.66C548.217 129.444 544.934 125.156 542.656 119.796C540.512 114.436 539.038 107.736 538.234 99.696C537.43 91.656 537.028 82.008 537.028 70.752C537.028 59.496 537.43 49.848 538.234 41.808C539.038 33.768 540.512 27.068 542.656 21.708C544.934 16.348 548.217 12.06 552.505 8.84401C556.793 5.628 562.354 3.35 569.188 2.01C576.022 0.670003 584.531 3.39746e-06 594.715 3.39746e-06C598.601 3.39746e-06 602.621 0.134006 606.775 0.40201C611.063 0.670007 615.15 1.07201 619.036 1.60801C622.922 2.14401 626.205 2.74701 628.885 3.41701V25.326C625.267 24.924 621.783 24.589 618.433 24.321C615.083 23.919 611.934 23.651 608.986 23.517C606.172 23.383 603.76 23.316 601.75 23.316C594.916 23.316 589.288 23.584 584.866 24.12C580.444 24.656 576.893 25.795 574.213 27.537C571.667 29.145 569.791 31.691 568.585 35.175C567.379 38.525 566.575 43.081 566.173 48.843C565.771 54.605 565.57 61.908 565.57 70.752C565.57 79.462 565.771 86.765 566.173 92.661C566.575 98.423 567.379 103.046 568.585 106.53C569.791 109.88 571.667 112.426 574.213 114.168C576.893 115.776 580.444 116.848 584.866 117.384C589.288 117.92 594.916 118.188 601.75 118.188C606.172 118.188 610.996 117.987 616.222 117.585C621.448 117.183 625.937 116.714 629.689 116.178V138.489C626.741 139.025 623.257 139.494 619.237 139.896C615.217 140.432 611.063 140.834 606.775 141.102C602.621 141.37 598.601 141.504 594.715 141.504ZM661.907 139.896V1.60801H690.449V58.089H745.523V1.60801H774.065V139.896H745.523V82.611H690.449V139.896H661.907ZM812.995 139.896V1.60801H907.465V24.924H841.537V58.491H898.018V81.807H841.537V116.58H907.465V139.896H812.995ZM994.784 141.504C984.6 141.504 976.091 140.834 969.257 139.494C962.423 138.154 956.862 135.876 952.574 132.66C948.286 129.444 945.003 125.156 942.725 119.796C940.581 114.436 939.107 107.736 938.303 99.696C937.499 91.656 937.097 82.008 937.097 70.752C937.097 59.496 937.499 49.848 938.303 41.808C939.107 33.768 940.581 27.068 942.725 21.708C945.003 16.348 948.286 12.06 952.574 8.84401C956.862 5.628 962.423 3.35 969.257 2.01C976.091 0.670003 984.6 3.39746e-06 994.784 3.39746e-06C998.67 3.39746e-06 1002.69 0.134006 1006.84 0.40201C1011.13 0.670007 1015.22 1.07201 1019.1 1.60801C1022.99 2.14401 1026.27 2.74701 1028.95 3.41701V25.326C1025.34 24.924 1021.85 24.589 1018.5 24.321C1015.15 23.919 1012 23.651 1009.05 23.517C1006.24 23.383 1003.83 23.316 1001.82 23.316C994.985 23.316 989.357 23.584 984.935 24.12C980.513 24.656 976.962 25.795 974.282 27.537C971.736 29.145 969.86 31.691 968.654 35.175C967.448 38.525 966.644 43.081 966.242 48.843C965.84 54.605 965.639 61.908 965.639 70.752C965.639 79.462 965.84 86.765 966.242 92.661C966.644 98.423 967.448 103.046 968.654 106.53C969.86 109.88 971.736 112.426 974.282 114.168C976.962 115.776 980.513 116.848 984.935 117.384C989.357 117.92 994.985 118.188 1001.82 118.188C1006.24 118.188 1011.06 117.987 1016.29 117.585C1021.52 117.183 1026.01 116.714 1029.76 116.178V138.489C1026.81 139.025 1023.33 139.494 1019.31 139.896C1015.29 140.432 1011.13 140.834 1006.84 141.102C1002.69 141.37 998.67 141.504 994.784 141.504ZM1061.98 139.896V1.60801H1090.52V57.888H1105.19L1147.2 1.60801H1178.35L1128.1 67.737L1178.96 139.896H1146.19L1105.19 81.204H1090.52V139.896H1061.98Z" fill="black"/>
</svg>
